# xmcd
#
# Track frame offsets: 
#        150
#        12853
#        33192
#        50515
#        69682
#        87442
#        103639
#        117094
#        132052
#        146701
#        159086
#        173713
#        186511
#        202051
#        213719
#        228257
#        244727
#        257566
#        273978
#        289698
#        307275
#        321770
#
# Disc length: 4576 seconds
#
# Revision: 0
# Processed by: cddbd v1.5.2PL0 Copyright (c) Steve Scherf et al.
# Submitted via: ExactAudioCopy v1.0b3
#
DISCID=4311de16
DTITLE=Astor Piazzolla - ブエノスアイレスの四季～生誕90周年記念 アストル・ピアソラ作品集  
DYEAR=1900
DGENRE=Tango
TTITLE0=Libertango
TTITLE1=Adios Nonino
TTITLE2=Primavera portena
TTITLE3=Verano porteno
TTITLE4=Otono porteno
TTITLE5=Invierno porteno
TTITLE6=El desbande
TTITLE7=Villeguita
TTITLE8=Para Iucirse
TTITLE9=Triunfal
TTITLE10=Preparense
TTITLE11=Contratiempo
TTITLE12=La que vendra
TTITLE13=Contrabajeando
TTITLE14=Marron y azul
TTITLE15=Melancolico Buenos Aires
TTITLE16=Decarisimo
TTITLE17=Chiquilin de Banchi
TTITLE18=Balada para un loco
TTITLE19=Kicho
TTITLE20=Zum
TTITLE21=Adios Nonino
EXTD=
EXTT0=
EXTT1=
EXTT2=
EXTT3=
EXTT4=
EXTT5=
EXTT6=
EXTT7=
EXTT8=
EXTT9=
EXTT10=
EXTT11=
EXTT12=
EXTT13=
EXTT14=
EXTT15=
EXTT16=
EXTT17=
EXTT18=
EXTT19=
EXTT20=
EXTT21=
PLAYORDER=
